HIERARCHY
ROOT root
{
	OFFSET	0	13.1	24.9
	CHANNELS 6  Xposition Yposition Zposition Xrotation Yrotation Zrotation
	JOINT spine_1
	{
		OFFSET	0	9.99999	0
		CHANNELS 3  Xrotation Yrotation Zrotation
		JOINT spine_2
		{
			OFFSET	0	112	-10
			CHANNELS 3  Xrotation Yrotation Zrotation
			JOINT spine_3
			{
				OFFSET	0	206.5	19.3
				CHANNELS 3  Xrotation Yrotation Zrotation
				JOINT spine_4
				{
					OFFSET	0	110.4	14.6
					CHANNELS 3  Xrotation Yrotation Zrotation
					JOINT neck_1
					{
						OFFSET	0	71.8	-50.3
						CHANNELS 3  Xrotation Yrotation Zrotation
						JOINT neck_2
						{
							OFFSET	0	86.2	-25.8
							CHANNELS 3  Xrotation Yrotation Zrotation
							JOINT head_ee
							{
								OFFSET	0	179.8	-8.7
								CHANNELS 3  Xrotation Yrotation Zrotation
								End Site
								{
									OFFSET	1	0	0
								}
							}
						}
					}
					JOINT left_clavicle
					{
						OFFSET	-43.2	22.4	-70.8
						CHANNELS 3  Xrotation Yrotation Zrotation
						JOINT left_shoulder
						{
							OFFSET	-93.9	-5.79999	48.7
							CHANNELS 3  Xrotation Yrotation Zrotation
							JOINT left_elbow
							{
								OFFSET	-291.4	-30.8	15.2
								CHANNELS 3  Xrotation Yrotation Zrotation
								JOINT left_lowarm_twist
								{
									OFFSET	-110.7	-3.89999	13.6
									CHANNELS 3  Xrotation Yrotation Zrotation
									JOINT left_hand
									{
										OFFSET	-110.7	-3.89999	13.6
										CHANNELS 3  Xrotation Yrotation Zrotation
										JOINT left_ee
										{
											OFFSET	-80.8	-5.10001	12.1
											CHANNELS 3  Xrotation Yrotation Zrotation
											End Site
											{
												OFFSET	1	0	0
											}
										}
									}
								}
							}
						}
					}
					JOINT right_clavicle
					{
						OFFSET	43.2	22.4	-70.8
						CHANNELS 3  Xrotation Yrotation Zrotation
						JOINT right_shoulder
						{
							OFFSET	93.9	-5.79999	48.7
							CHANNELS 3  Xrotation Yrotation Zrotation
							JOINT right_elbow
							{
								OFFSET	291.4	-30.8	15.2
								CHANNELS 3  Xrotation Yrotation Zrotation
								JOINT right_lowarm_twist
								{
									OFFSET	110.7	-3.89999	13.6
									CHANNELS 3  Xrotation Yrotation Zrotation
									JOINT right_hand
									{
										OFFSET	110.7	-3.89999	13.6
										CHANNELS 3  Xrotation Yrotation Zrotation
										JOINT right_ee
										{
											OFFSET	80.8	-5.10001	12.1
											CHANNELS 3  Xrotation Yrotation Zrotation
											End Site
											{
												OFFSET	1	0	0
											}
										}
									}
								}
							}
						}
					}
				}
			}
		}
	}
	JOINT left_hip
	{
		OFFSET	-82.8	-127.5	0.300001
		CHANNELS 3  Xrotation Yrotation Zrotation
		JOINT left_knee
		{
			OFFSET	-28.2	-396.7	2.2
			CHANNELS 3  Xrotation Yrotation Zrotation
			JOINT left_ankle
			{
				OFFSET	-11.7	-411.3	35.4
				CHANNELS 3  Xrotation Yrotation Zrotation
				JOINT left_toes
				{
					OFFSET	0	-60	-88.6
					CHANNELS 3  Xrotation Yrotation Zrotation
					JOINT left_foot_ee
					{
						OFFSET	-22.5	-16.5	-42.2
						CHANNELS 3  Xrotation Yrotation Zrotation
						End Site
						{
							OFFSET	1	0	0
						}
					}
				}
			}
		}
	}
	JOINT right_hip
	{
		OFFSET	82.8	-127.5	0.300001
		CHANNELS 3  Xrotation Yrotation Zrotation
		JOINT right_knee
		{
			OFFSET	28.2	-396.7	2.2
			CHANNELS 3  Xrotation Yrotation Zrotation
			JOINT right_ankle
			{
				OFFSET	11.7	-411.3	35.4
				CHANNELS 3  Xrotation Yrotation Zrotation
				JOINT right_toes
				{
					OFFSET	0	-60	-88.6
					CHANNELS 3  Xrotation Yrotation Zrotation
					JOINT right_foot_ee
					{
						OFFSET	22.5	-16.5	-42.2
						CHANNELS 3  Xrotation Yrotation Zrotation
						End Site
						{
							OFFSET	1	0	0
						}
					}
				}
			}
		}
	}
}
MOTION
Frames: 5
Frame Time: 0.02
1372.05 701.618 -1475.22 1.40555405894 25.2239890724 1.81533598166 -3.41486 -0.469129 -0.874341 -3.41453 -0.412544 -0.902418 -3.40722 -0.155733 -0.979943 -3.40842 -0.308535 -0.943055 3.75655 10.7643 0.102131 4.13561 18.584 0.730202 -0.0 0.0 -0.0 9.8886 3.73202 19.207 0.597464 -26.8552 45.1589 2.28287 -48.5076 1.02865 -9.39526 -0.424161 1.12243 1.01897 -5.18182 4.67797 -0.0 0.0 -0.0 11.2743 7.95814 -22.6375 -33.7966 41.0385 -47.4431 0.374505 10.5102 -0.0344458 -1.19567 0.0436601 -0.146446 -2.85659 -6.21461 16.2954 0.0 0.0 0.0 -8.24394 -5.9066 2.96231 -22.3474 0.260373 3.3978 40.1886 11.3325 -4.90432 11.9376 -0.0 -0.0 -0.0 0.0 -0.0 34.9961 26.6609 -10.5424 -4.74562 -0.166095 -0.709165 -20.8833 3.23412 -3.20957 4.02239 -0.0 -0.0 0.0 0.0 0.0 
1351.10249636 702.064 -1504.44983222 1.88427590475 27.0655180468 0.365872181029 -3.55032 -0.454284 -0.466395 -3.5503 -0.423685 -0.494356 -3.54639 -0.274338 -0.590452 -3.54669 -0.364145 -0.539718 3.69567 10.3285 0.190403 4.03717 17.7592 0.817435 -0.0 0.0 -0.0 9.92288 4.8251 19.1948 -1.34463 -26.4108 45.3983 2.27087 -48.3578 1.01967 -11.5091 -0.544627 1.36453 1.20796 -4.37006 6.29721 -0.0 0.0 -0.0 11.0499 7.11954 -22.1312 -32.0625 41.796 -48.5154 0.38553 10.8124 -0.0364855 -1.28947 0.0472145 -0.157897 -2.84952 -6.85407 15.9152 0.0 0.0 0.0 -9.94542 -6.17906 4.22265 -21.0639 0.281476 3.20199 39.3644 11.1895 -4.8299 12.2521 -0.0 -0.0 -0.0 0.0 -0.0 33.1933 27.7788 -9.26525 -8.49461 -0.255435 -1.27745 -20.9477 5.52343 -3.24953 4.25675 -0.0 -0.0 0.0 0.0 0.0 
1335.32539694 699.451 -1531.85546619 3.76220533006 28.4410699913 -1.93934433051 -3.81122 -0.282708 -0.446538 -3.81114 -0.253721 -0.463622 -3.80885 -0.116633 -0.515475 -3.80917 -0.196578 -0.490587 3.78841 11.3145 1.26988 4.14846 18.534 2.07684 -0.0 0.0 -0.0 9.8661 5.76182 19.0086 -4.43811 -26.2516 45.4581 2.28789 -48.57 1.03241 -13.5094 -0.666797 1.58944 1.55376 -2.66488 9.35287 -0.0 0.0 -0.0 10.6427 8.07158 -21.2481 -31.3324 42.6244 -48.8973 0.394365 11.0541 -0.0381612 -0.609059 0.0218574 -0.0747101 -2.98067 -9.61026 15.3465 0.0 0.0 0.0 -12.0621 -7.31699 5.46193 -22.6487 0.254783 3.4437 38.694 12.7248 -4.78462 15.0837 -0.0 -0.0 -0.0 0.0 -0.0 32.9788 28.7018 -9.79539 -14.6673 -0.321035 -2.22184 -22.9793 0.515118 -3.50123 3.06854 -0.0 -0.0 0.0 0.0 0.0 
1335.98174625 699.451 -1532.27570586 3.73908809738 27.780946872 -1.89028286494 -3.81122 -0.282708 -0.446538 -3.81114 -0.253721 -0.463622 -3.80885 -0.116633 -0.515475 -3.80917 -0.196578 -0.490587 3.78841 11.3145 1.26988 4.14846 18.534 2.07684 -0.0 0.0 -0.0 9.8661 5.76182 19.0086 -4.43811 -26.2516 45.4581 2.28789 -48.57 1.03241 -13.5094 -0.666797 1.58944 1.55376 -2.66488 9.35287 -0.0 0.0 -0.0 10.6427 8.07158 -21.2481 -31.3324 42.6244 -48.8973 0.394365 11.0541 -0.0381612 -0.609059 0.0218574 -0.0747101 -2.98067 -9.61026 15.3465 0.0 0.0 0.0 -12.0621 -7.31699 5.46193 -22.6487 0.254783 3.4437 38.694 12.7248 -4.78462 15.0837 -0.0 -0.0 -0.0 0.0 -0.0 32.9788 28.7018 -9.79539 -14.6673 -0.321035 -2.22184 -22.9793 0.515118 -3.50123 3.06854 -0.0 -0.0 0.0 0.0 0.0 
1302.50773794 703.92 -1584.98387925 5.45067199739 30.2335012235 -3.80064198388 -3.66912 0.118445 -0.0972108 -3.66912 0.12439 -0.0894768 -3.66933 0.144055 -0.0522219 -3.66931 0.134 -0.0743174 5.71413 9.66893 0.999204 6.00699 15.6189 1.5263 -0.0 0.0 -0.0 8.95556 7.45371 17.1252 -7.63226 -24.4406 48.0015 1.97218 -44.3274 0.80344 -17.7149 -0.94892 2.04779 2.2752 -2.84581 14.2342 -0.0 0.0 -0.0 11.0635 9.38125 -22.1794 -29.6019 43.4197 -48.1838 0.39838 11.1638 -0.0389346 -1.64617 0.0609028 -0.201387 -2.61118 -9.27955 13.0633 0.0 0.0 0.0 -12.9254 -8.61013 6.45089 -27.1366 0.143047 4.12319 39.0459 19.9225 -4.93759 18.13 -0.0 -0.0 -0.0 0.0 -0.0 27.5528 29.4296 -9.98158 -17.9284 -0.314544 -2.72208 -16.1424 -0.884865 -2.44473 2.6177 -0.0 -0.0 0.0 0.0 0.0 
